<?xml version="1.0" standalone="no"?>
<!DOCTYPE svg PUBLIC "-//W3C//DTD SVG 20010904//EN"
 "http://www.w3.org/TR/2001/REC-SVG-20010904/DTD/svg10.dtd">
<svg version="1.0" xmlns="http://www.w3.org/2000/svg"
 width="247.000000pt" height="212.000000pt" viewBox="0 0 247.000000 212.000000"
 preserveAspectRatio="xMidYMid meet">

<g transform="translate(0.000000,212.000000) scale(0.100000,-0.100000)"
fill="#000000" stroke="none">
<path d="M148 2041 c-48 -9 -90 -19 -93 -22 -6 -7 21 -178 29 -187 3 -2 45 3
93 12 223 41 395 -6 533 -144 114 -114 132 -161 196 -525 30 -169 54 -329 54
-355 0 -181 -99 -361 -254 -459 -76 -47 -152 -74 -259 -91 -43 -7 -80 -16 -82
-20 -4 -7 24 -180 30 -188 6 -7 186 29 246 49 211 69 374 220 462 427 30 71
57 206 57 287 0 73 -105 668 -131 739 -128 357 -487 552 -881 477z"/>
<path d="M1985 2045 c-255 -53 -460 -231 -555 -481 -14 -36 -32 -127 -86 -434
-40 -229 -45 -277 -40 -350 22 -322 233 -586 536 -674 55 -16 222 -48 226 -43
4 5 35 189 32 191 -2 2 -54 13 -117 25 -184 35 -295 105 -385 239 -55 84 -87
175 -93 272 -3 61 6 133 51 385 50 278 59 318 92 385 60 122 179 225 314 275
68 25 218 30 324 11 49 -9 91 -14 93 -12 4 3 33 165 33 182 0 16 -185 44 -282
43 -46 -1 -110 -7 -143 -14z"/>
<path d="M1141 1999 c-27 -26 -31 -38 -31 -84 0 -46 4 -58 31 -84 26 -27 38
-31 84 -31 46 0 58 4 84 31 27 26 31 38 31 84 0 46 -4 58 -31 84 -26 27 -38
31 -84 31 -46 0 -58 -4 -84 -31z"/>
</g>
</svg>
