<?xml version="1.0" encoding="iso-8859-1"?>
<!-- Generator: Adobe Illustrator 19.1.0, SVG Export Plug-In . SVG Version: 6.00 Build 0)  -->
<svg version="1.1" xmlns="http://www.w3.org/2000/svg" xmlns:xlink="http://www.w3.org/1999/xlink" x="0px" y="0px"
	 viewBox="0 0 191.797 112" style="enable-background:new 0 0 191.797 112;" xml:space="preserve">
<g id="candidate-resources-white">
	<g id="cadidate_resources_1_">
		<path style="fill:#FFFFFF;" d="M174,2.451C174,0.853,172.81,0,171.213,0H20.522C18.925,0,17,0.853,17,2.451V105h157V2.451z
			 M169,100H22V5h147V100z"/>
		<path style="fill:#FFFFFF;" d="M189.135,106H109v2H82v-2H2.662C1.198,106,0,107.536,0,109s1.198,3,2.662,3h186.473
			c1.464,0,2.662-1.536,2.662-3S190.599,106,189.135,106z"/>
		<path style="fill:#FFFFFF;" d="M64.136,64.034c0.767,1.734,1.537,3.467,2.298,5.204c0.264,0.602,0.695,0.986,1.354,1.055
			c1.306,0.136,2.176-1.11,1.633-2.36c-0.804-1.853-1.636-3.674-2.454-5.521C66.907,62.276,66.862,62,66.805,62
			c1.756,0,3.456,0,5.242,0C68.084,59,64,54.779,60,51.159c0,5.397,0,10.702,0,16.105c1-1.349,2.497-2.625,3.693-3.945
			C63.829,63.618,64.043,63.825,64.136,64.034z"/>
	</g>
</g>
<g id="Layer_1">
</g>
</svg>
