<?xml version="1.0" encoding="iso-8859-1"?>
<!-- Generator: Adobe Illustrator 19.1.0, SVG Export Plug-In . SVG Version: 6.00 Build 0)  -->
<svg version="1.1" xmlns="http://www.w3.org/2000/svg" xmlns:xlink="http://www.w3.org/1999/xlink" x="0px" y="0px"
	 viewBox="0 0 76.351 123.125" style="enable-background:new 0 0 76.351 123.125;" xml:space="preserve">
<g id="insights-white">
	<g id="Adqpi3_2_">
		<g>
			<path style="fill:#FFFFFF;" d="M35.019,123.125c-3.113-0.844-6.311-1.463-9.309-2.607c-2.27-0.866-4.461-2.178-6.374-3.689
				c-3.737-2.951-3.037-7.006,1.35-8.776c1.082-0.437,2.212-0.752,3.321-1.122c9.117-3.037,18.23-6.086,27.357-9.093
				c1.092-0.36,2.311-0.796,3.378-0.623c0.818,0.133,1.81,1.046,2.122,1.846c0.233,0.6-0.264,1.879-0.843,2.312
				c-1.003,0.749-2.294,1.159-3.513,1.568c-8.614,2.896-17.242,5.753-25.862,8.63c-0.981,0.327-1.947,0.7-3.353,1.208
				c0.818,0.739,1.331,1.467,2.032,1.796c9.604,4.508,19.062,4.56,28.218-1.207c2.771-1.745,3.996-2.005,5.12-0.643
				c1.22,1.479,0.586,3.104-2.153,5.005c-3.685,2.558-7.796,4.101-12.221,4.831c-0.752,0.124-1.483,0.372-2.224,0.563
				C39.714,123.125,37.366,123.125,35.019,123.125z"/>
			<path style="fill:#FFFFFF;" d="M5.273,37.888c-0.208,6.263,2.122,11.746,5.268,16.931c2.364,3.897,5.081,7.584,7.367,11.523
				c1.489,2.565,2.574,5.381,3.661,8.155c0.357,0.911,0.507,2.221,0.104,3.024c-0.431,0.859-1.577,1.729-2.505,1.846
				c-0.677,0.085-2.073-0.957-2.178-1.645c-0.887-5.816-4.571-10.139-7.567-14.841c-1.679-2.636-3.325-5.298-4.868-8.015
				C-6.107,36.077,3.126,13.589,20.033,4.546C42.826-7.646,71.104,5.839,75.701,31.251c1.277,7.059,0.791,14.084-2.538,20.571
				c-2.254,4.391-4.927,8.572-7.518,12.782c-2.518,4.091-5.593,7.886-6.223,12.895c-0.17,1.357-1.114,2.015-2.472,1.988
				c-1.581-0.031-2.576-1.009-2.461-2.443c0.153-1.911,0.452-3.938,1.263-5.642c1.505-3.161,3.377-6.155,5.188-9.162
				c2.015-3.346,4.25-6.564,6.185-9.954c9.247-16.204,1.037-36.718-15.26-44.047C32.271-0.572,9.89,10.941,5.74,32.05
				C5.366,33.953,5.419,35.94,5.273,37.888z"/>
			<path style="fill:#FFFFFF;" d="M49.51,87.447c-8.655,0-17.31,0.003-25.965-0.004c-1.172-0.001-2.418,0.187-3.491-0.153
				c-0.847-0.268-2.086-1.229-2.068-1.853c0.026-0.947,0.793-2.157,1.613-2.715c0.756-0.515,1.996-0.419,3.024-0.422
				c9.771-0.026,19.543-0.016,29.314-0.014c0.521,0,1.046-0.02,1.562,0.037c2.767,0.303,4.588,1.834,4.999,4.174
				c0.382,2.177-1.013,4.376-3.639,5.33c-3.297,1.197-6.658,2.217-9.987,3.326c-6.658,2.218-13.314,4.444-19.97,6.668
				c-0.987,0.33-1.955,0.735-2.964,0.973c-2.168,0.512-3.854-0.222-4.079-1.858c-0.266-1.939,1.024-2.653,2.677-3.193
				c8.522-2.785,17.02-5.647,25.521-8.496c1.193-0.4,2.36-0.877,3.54-1.318C49.567,87.768,49.539,87.608,49.51,87.447z"/>
			<path style="fill:#FFFFFF;" d="M13.664,36.008c0.253-10.026,8.362-19.591,18.174-21.792c1.639-0.368,3.323-0.634,4.998-0.718
				c1.552-0.078,2.851,0.563,3.033,2.341c0.184,1.799-0.931,2.553-2.53,2.824c-1.79,0.303-3.653,0.394-5.354,0.965
				c-7.622,2.56-11.912,7.975-13.151,15.867c-0.08,0.51-0.035,1.039-0.067,1.557c-0.1,1.638-0.913,2.728-2.574,2.903
				c-1.506,0.159-2.411-1.072-2.526-3.217C13.646,36.35,13.664,35.959,13.664,36.008z"/>
		</g>
	</g>
</g>
<g id="Layer_1">
</g>
</svg>
