<?xml version="1.0" encoding="iso-8859-1"?>
<!-- Generator: Adobe Illustrator 19.1.0, SVG Export Plug-In . SVG Version: 6.00 Build 0)  -->
<svg version="1.1" xmlns="http://www.w3.org/2000/svg" xmlns:xlink="http://www.w3.org/1999/xlink" x="0px" y="0px"
	 viewBox="0 0 105.851 127" style="enable-background:new 0 0 105.851 127;" xml:space="preserve">
<g id="science-lab-white">
	<g id="science_lab_1_">
		<path style="fill:#FFFFFF;" d="M99.315,51.696c7.05-11.495,8.45-21.053,3.941-26.912c-4.509-5.861-14.106-6.959-27.022-3.094
			c-1.074,0.321-2.178,0.711-3.279,1.093C68.24,8.784,61.079,0,52.926,0C45.099,0,38.19,8.102,33.477,21.134
			c-12.953-4.921-23.6-4.963-28.701,0.968C-1.946,29.92,3.025,45.693,16.12,62.489c-3.761,4.299-7.007,8.612-9.584,12.814
			c-7.05,11.494-8.45,21.053-3.942,26.914c2.739,3.559,7.355,5.362,13.454,5.362c3.94,0,8.5-0.752,13.569-2.269
			c1.074-0.321,2.178-0.711,3.279-1.094C37.612,118.216,44.773,127,52.926,127c7.82,0,14.724-8.088,19.437-21.101
			c0.519,0.199,1.05,0.433,1.562,0.618c5.661,2.035,10.716,3.048,15.006,3.048c5.326,0,9.477-1.562,12.146-4.667
			c6.721-7.817,1.749-23.591-11.347-40.387C93.492,60.212,96.738,55.899,99.315,51.696z M77.764,26.805
			c4.623-1.383,8.712-2.07,12.1-2.07c4.302,0,7.474,1.108,9.163,3.303c3.018,3.924,1.465,11.529-4.262,20.867
			c-2.292,3.736-5.148,7.575-8.454,11.416c-2.419-2.838-5.058-5.687-7.902-8.518c-0.641-8.767-1.987-16.859-3.905-23.91
			C75.6,27.509,76.697,27.124,77.764,26.805z M65.47,79.808c-4.369,3.36-8.813,6.401-13.236,9.114
			c-4.269-2.95-8.542-6.228-12.721-9.821c-2.333-2.005-4.622-4.12-6.845-6.301c-0.205-3.108-0.316-6.223-0.316-9.299
			c0-3.303,0.125-6.65,0.36-9.985c2.454-2.148,4.999-4.267,7.669-6.322c4.349-3.345,8.773-6.372,13.176-9.076
			c4.417,3.009,8.747,6.314,12.781,9.782c2.333,2.005,4.622,4.121,6.845,6.302c0.205,3.108,0.316,6.223,0.316,9.299
			c0,3.303-0.125,6.651-0.36,9.986C70.685,75.634,68.14,77.753,65.47,79.808z M72.402,81.097
			c-0.764,6.197-1.908,12.188-3.381,17.578c-3.877-1.809-7.864-3.987-11.9-6.524c3.89-2.476,7.779-5.171,11.604-8.114
			C69.978,83.073,71.191,82.085,72.402,81.097z M27.052,66.978c-1.32-1.447-2.604-2.907-3.837-4.375
			c1.244-1.316,2.537-2.628,3.878-3.933c-0.047,1.595-0.079,3.201-0.079,4.831C27.014,64.668,27.028,65.827,27.052,66.978z
			 M47.178,91.881c-3.645,2.023-7.244,3.792-10.745,5.271c-1.3-5.059-2.318-10.591-3.011-16.298
			c0.857,0.768,1.726,1.534,2.612,2.296C39.692,86.295,43.428,89.197,47.178,91.881z M33.45,45.902
			c0.761-6.171,1.897-12.137,3.361-17.508c3.847,1.83,7.833,4.046,11.812,6.523c-3.854,2.457-7.707,5.131-11.496,8.046
			C35.873,43.926,34.661,44.914,33.45,45.902z M58.69,35.111c3.64-2.02,7.233-3.786,10.729-5.262
			c1.3,5.059,2.318,10.591,3.012,16.299c-0.857-0.768-1.726-1.534-2.612-2.296C66.121,40.673,62.394,37.76,58.69,35.111z
			 M78.799,60.022c1.32,1.446,2.604,2.907,3.837,4.375c-1.244,1.316-2.537,2.628-3.878,3.933c0.047-1.595,0.079-3.201,0.079-4.831
			C78.837,62.332,78.824,61.173,78.799,60.022z M52.926,5.338c6.168,0,11.381,7.939,15.018,19.354
			c-4.595,1.907-9.344,4.288-14.14,7.071c-5.284-3.459-10.469-6.332-15.4-8.57C42.012,12.59,47.032,5.338,52.926,5.338z
			 M8.823,25.582c1.753-2.039,4.53-2.958,8.021-2.958c4.157,0,9.335,1.328,14.982,3.596c-2.106,7.221-3.606,15.608-4.325,24.763
			c-2.708,2.442-5.262,4.928-7.655,7.433C9.427,44.901,3.666,31.58,8.823,25.582z M28.087,100.195
			c-10.491,3.138-18.243,2.69-21.262-1.232c-3.019-3.925-1.466-11.531,4.261-20.869c2.292-3.736,5.148-7.575,8.454-11.416
			c2.419,2.839,5.058,5.688,7.902,8.52c0.641,8.767,1.987,16.859,3.905,23.909C30.251,99.491,29.154,99.876,28.087,100.195z
			 M52.926,121.662c-6.167,0-11.38-7.939-15.017-19.354c4.6-1.909,9.353-4.292,14.153-7.079c5.208,3.415,10.383,6.307,15.381,8.594
			C63.834,114.417,58.816,121.662,52.926,121.662z M97.029,101.419c-3.227,3.75-10.991,3.781-21.297,0.075
			c-0.562-0.202-1.145-0.457-1.715-0.679c2.112-7.229,3.615-15.629,4.335-24.799c2.708-2.442,5.262-4.928,7.654-7.432
			C96.425,82.099,102.186,95.42,97.029,101.419z"/>
		<circle style="fill:#FFFFFF;" cx="51.758" cy="64.223" r="7.284"/>
	</g>
</g>
<g id="Layer_1">
</g>
</svg>
