<?xml version="1.0" encoding="utf-8"?>
<!-- Generator: Adobe Illustrator 19.1.0, SVG Export Plug-In . SVG Version: 6.00 Build 0)  -->
<svg version="1.1" id="Layer_1" xmlns="http://www.w3.org/2000/svg" xmlns:xlink="http://www.w3.org/1999/xlink" x="0px" y="0px"
	 viewBox="0 0 183.8 183.8" style="enable-background:new 0 0 183.8 183.8;" xml:space="preserve">
<style type="text/css">
	.st0{fill:#F29620;}
	.st1{fill:#A9C23F;}
	.st2{fill:#0082C9;}
	.st3{fill:#D41772;}
	.st4{fill-rule:evenodd;clip-rule:evenodd;fill:#D41772;}
</style>
<g>
	<path class="st0" d="M58.4,9.6V6.3c-0.8,0.3-1.6,0.6-2.3,1L58.4,9.6z"/>
	<path class="st0" d="M71.4,22.6V2.3C69.2,2.8,67,3.4,64.9,4v12.1L71.4,22.6z"/>
	<path class="st0" d="M84.4,35.7V0.3c-2.2,0.2-4.4,0.4-6.5,0.8v28.1L84.4,35.7z"/>
	<path class="st0" d="M52.3,8.9C52.2,9,52,9.1,51.8,9.2v0C52,9.1,52.2,9,52.3,8.9z"/>
	<path class="st0" d="M104,44.6c2.2,0.6,4.4,1.3,6.5,2.2V1.9c-2.1-0.4-4.3-0.8-6.5-1.1V44.6z"/>
	<path class="st0" d="M90.9,0v42.2l0.9,0.9c0,0,0,0,0.1,0c1.9,0,3.7,0.1,5.6,0.3V0.2C95.6,0.1,93.7,0,91.9,0C91.6,0,91.2,0,90.9,0z"
		/>
	<path class="st0" d="M117,3.5V50c2.3,1.4,4.5,2.9,6.5,4.7V5.6C121.4,4.8,119.2,4.1,117,3.5z"/>
	<path class="st0" d="M54,8.1c0.5-0.2,1-0.4,1.5-0.7C55,7.7,54.5,7.9,54,8.1z"/>
</g>
<g>
	<path class="st1" d="M49.5,56.1L23.7,30.2c-1.5,1.6-2.9,3.3-4.2,5l20.8,20.8H49.5z"/>
	<path class="st1" d="M47,72L47,72c-0.3,0.5-0.5,1.1-0.7,1.6C46.5,73.1,46.8,72.5,47,72z"/>
	<path class="st1" d="M28.2,25.6L58.7,56c1.6-1.5,3.3-2.9,5.1-4.1L33.1,21.2C31.4,22.6,29.8,24.1,28.2,25.6z"/>
	<path class="st1" d="M38.3,17.2l31.2,31.2c2.1-1.1,4.2-2,6.5-2.8L43.8,13.5C42,14.7,40.1,15.9,38.3,17.2z"/>
	<path class="st1" d="M56,7.3c-2.1,0.9-4.2,1.9-6.3,2.9l33.6,33.6c2.8-0.5,5.6-0.7,8.5-0.7L56,7.3z"/>
	<path class="st1" d="M31.1,56.1L15.6,40.6c-1.2,1.8-2.4,3.7-3.5,5.7l9.8,9.8H31.1z"/>
	<path class="st1" d="M6.4,57.9c-0.1,0.3-0.2,0.5-0.3,0.8l0,0C6.2,58.5,6.3,58.2,6.4,57.9z"/>
	<path class="st1" d="M12.7,56.1l-3.8-3.8c-0.6,1.2-1.1,2.5-1.7,3.8H12.7z"/>
</g>
<g>
	<path class="st2" d="M58.3,56.1H7.2c-0.9,2.1-1.7,4.3-2.5,6.5h47.7C54.2,60.2,56.2,58,58.3,56.1z"/>
	<path class="st2" d="M24.9,108.2H1.4c0.4,2.2,0.9,4.4,1.4,6.5h15.6L24.9,108.2z"/>
	<path class="st2" d="M11.8,121.2H4.7c0.6,1.8,1.2,3.5,1.9,5.2L11.8,121.2z"/>
	<path class="st2" d="M6.8,126.8c0.1,0.3,0.2,0.6,0.4,0.9h0C7.1,127.4,6.9,127.1,6.8,126.8z"/>
	<path class="st2" d="M48.4,69.1H2.8c-0.5,2.1-1,4.3-1.4,6.5h44.1C46.3,73.3,47.3,71.2,48.4,69.1z"/>
	<path class="st2" d="M37.9,95.1H0c0.1,2.2,0.2,4.4,0.4,6.5h30.9L37.9,95.1z"/>
	<path class="st2" d="M43.7,82.1l-43.3,0c-0.2,2.2-0.4,4.3-0.5,6.5h42.9C43,86.4,43.3,84.2,43.7,82.1z"/>
</g>
<g>
	<path class="st3" d="M42.8,90.2L6.6,126.4c0.9,2.2,1.8,4.3,2.9,6.4L43.3,99C42.9,96.1,42.7,93.2,42.8,90.2z"/>
	<path class="st3" d="M45,106.5l-32.3,32.3c1.1,1.9,2.3,3.8,3.6,5.6l31.3-31.3C46.6,110.9,45.7,108.7,45,106.5z"/>
	<path class="st3" d="M56.9,177c0.1,0,0.2,0.1,0.4,0.2l0,0C57.1,177.1,57,177,56.9,177z"/>
	<path class="st3" d="M50.9,119l-30.6,30.6c1.4,1.7,2.8,3.3,4.3,4.9l30.4-30.4C53.5,122.5,52.1,120.8,50.9,119z"/>
	<path class="st3" d="M56,169.1l-5.1,5.1c1.7,0.8,3.4,1.6,5.1,2.3V169.1z"/>
	<path class="st3" d="M56,132.3l-26.9,26.9c1.6,1.5,3.2,2.9,4.9,4.3L56,141.5V132.3z"/>
	<path class="st3" d="M56,150.7l-16.7,16.7c1.8,1.3,3.7,2.5,5.6,3.6L56,159.9V150.7z"/>
</g>
<g>
	<path class="st0" d="M56,125.4v51.3c2.1,0.9,4.3,1.7,6.5,2.5v-47.9C60.2,129.4,58,127.5,56,125.4z"/>
	<path class="st0" d="M69.1,181c2.1,0.5,4.3,1,6.5,1.4v-44.3c-2.3-0.8-4.4-1.7-6.5-2.8V181z"/>
	<path class="st0" d="M121.2,171.8v7.3c1.8-0.6,3.6-1.3,5.3-2L121.2,171.8z"/>
	<path class="st0" d="M126.9,177c0.3-0.1,0.6-0.2,0.8-0.3v0C127.4,176.7,127.1,176.8,126.9,177z"/>
	<path class="st0" d="M108.2,158.7v23.7c2.2-0.4,4.4-0.9,6.5-1.4v-15.8L108.2,158.7z"/>
	<path class="st0" d="M82.1,183.4c2.2,0.2,4.3,0.4,6.5,0.5v-43c-2.2-0.1-4.4-0.4-6.5-0.9L82.1,183.4z"/>
	<path class="st0" d="M95.1,145.7v38.1c2.2-0.1,4.4-0.2,6.5-0.5v-31.1L95.1,145.7z"/>
</g>
<g>
	<path class="st1" d="M130.5,122.1c-0.4,0.5-0.8,1-1.2,1.4C129.7,123.1,130.1,122.6,130.5,122.1z"/>
	<path class="st1" d="M177,126.8c0.1-0.1,0.1-0.3,0.2-0.4l0,0C177.1,126.5,177,126.6,177,126.8z"/>
	<path class="st1" d="M132.3,127.6l26.9,26.9c1.5-1.6,2.9-3.2,4.3-4.9l-22-22H132.3z"/>
	<path class="st1" d="M150.7,127.6l16.7,16.7c1.3-1.8,2.5-3.7,3.6-5.6l-11.1-11.1H150.7z"/>
	<path class="st1" d="M169.2,127.6l5.1,5.1c0.8-1.7,1.6-3.4,2.3-5.1H169.2z"/>
	<path class="st1" d="M119,132.7l30.7,30.7c1.7-1.4,3.3-2.8,4.9-4.3l-30.4-30.4C122.5,130.2,120.8,131.5,119,132.7z"/>
	<path class="st1" d="M90.3,140.9l36.3,36.3c2.2-0.9,4.3-1.8,6.3-2.9L99,140.4C96.1,140.8,93.2,140.9,90.3,140.9z"/>
	<path class="st1" d="M106.5,138.7l32.3,32.3c1.9-1.1,3.8-2.3,5.6-3.6l-31.3-31.3C111,137.1,108.8,138,106.5,138.7z"/>
</g>
<path class="st4" d="M133.5,9.9l-9.9,9.9v-9.2l3.6-3.6C129.3,7.9,131.4,8.9,133.5,9.9L133.5,9.9z M139.4,13.2
	c1.9,1.1,3.8,2.4,5.6,3.6l-21.4,21.4v-9.2L139.4,13.2L139.4,13.2z M150.2,20.8c1.7,1.4,3.3,2.8,4.9,4.3l-30.5,30.5
	c-0.4-0.3-0.7-0.6-1.1-0.9v-7.2L150.2,20.8L150.2,20.8z M159.6,29.8c1.5,1.6,2.9,3.3,4.2,5L133,65.6c-1.2-1.9-2.5-3.6-3.9-5.3
	L159.6,29.8L159.6,29.8z M167.8,40.1c1.3,1.8,2.4,3.7,3.6,5.6l-32.6,32.6c-0.7-2.3-1.5-4.6-2.5-6.7L167.8,40.1L167.8,40.1z
	 M174.6,51.7c1,2.1,2,4.2,2.8,6.4l-36.7,36.7c0.1-1,0.1-1.9,0.1-2.9c0-2-0.1-4.1-0.4-6L174.6,51.7L174.6,51.7z"/>
<g>
	<path class="st2" d="M147,88.5h36.7c-0.1-2.2-0.2-4.4-0.5-6.5h-29.8L147,88.5z"/>
	<path class="st2" d="M135.4,114.6H181c0.5-2.1,1-4.3,1.4-6.5h-44.2C137.4,110.3,136.5,112.5,135.4,114.6z"/>
	<path class="st2" d="M125.4,127.6h51.2c0.9-2.1,1.7-4.3,2.5-6.5h-47.8C129.5,123.4,127.6,125.6,125.4,127.6z"/>
	<path class="st2" d="M160,75.5h22.3c-0.4-2.2-0.9-4.4-1.4-6.5h-14.4L160,75.5z"/>
	<path class="st2" d="M140.9,95c-0.1,2.2-0.4,4.4-0.9,6.5h43.3c0.2-2.2,0.4-4.3,0.4-6.5H140.9z"/>
	<path class="st2" d="M176.9,57c-0.1-0.4-0.3-0.7-0.4-1.1h0C176.6,56.3,176.8,56.7,176.9,57z"/>
	<path class="st2" d="M173.1,62.4h5.9c-0.5-1.5-1-2.9-1.6-4.3L173.1,62.4z"/>
</g>
</svg>
